<svg viewBox="-3 -3 24 24" xmlns="http://www.w3.org/2000/svg"><g stroke-width="1.125"><path d="m9 0a9 9 0 0 0 -9 9 9 9 0 0 0 9 9 9 9 0 0 0 9-9 9 9 0 0 0 -9-9zm-3.6465 4.6465 3.6465 3.6465 3.6465-3.6465.70705.70705-3.6465 3.6465 3.6465 3.6465-.70705.70705-3.6465-3.6465-3.6465 3.6465-.70705-.70705 3.6465-3.6465-3.6465-3.6465z" fill="#fff"/><path d="m9 0a9 9 0 0 0 -9 9 9 9 0 0 0 9 9 9 9 0 0 0 9-9 9 9 0 0 0 -9-9zm-3.6465 4.6465 3.6465 3.6465 3.6465-3.6465.70705.70705-3.6465 3.6465 3.6465 3.6465-.70705.70705-3.6465-3.6465-3.6465 3.6465-.70705-.70705 3.6465-3.6465-3.6465-3.6465z" fill="#ff0404" opacity=".5"/></g></svg>